# xmcd
#
# Track frame offsets: 
#        150
#        29365
#        39062
#        61073
#        83142
#        109385
#        122160
#        145735
#        163225
#        179165
#
# Disc length: 2727 seconds
#
# Revision: 3
# Processed by: cddbd v1.5.2PL0 Copyright (c) Steve Scherf et al.
# Submitted via: ExactAudioCopy v0.99pb4
#
DISCID=860aa50a
DTITLE=Okolokolo - The Legend of the Amaron Indians
DYEAR=1996
DGENRE=Native American
TTITLE0=Salto Angel
TTITLE1=Aruana Aruana
TTITLE2=Ekahalat
TTITLE3=Tori-Tori
TTITLE4=La Vallee Des Angels
TTITLE5=Tupi Kawahib
TTITLE6=Na-Bolom
TTITLE7=Ilha Do Bananal
TTITLE8=Arakre Karaja
TTITLE9=Okolokolo
EXTD=YEAR: 1996 ID3G:  64
EXTT0=
EXTT1=
EXTT2=
EXTT3=
EXTT4=
EXTT5=
EXTT6=
EXTT7=
EXTT8=
EXTT9=
PLAYORDER=
